<?xml version="1.0" encoding="UTF-8" standalone="no"?>
<!-- Created with Inkscape (http://www.inkscape.org/) -->

<svg
   width="512"
   height="512"
   viewBox="0 0 135.46666 135.46667"
   version="1.1"
   id="svg1"
   xml:space="preserve"
   sodipodi:docname="logo.svg"
   inkscape:version="1.3.2 (091e20e, 2023-11-25)"
   inkscape:export-filename="logo16.png"
   inkscape:export-xdpi="3"
   inkscape:export-ydpi="3"
   xmlns:inkscape="http://www.inkscape.org/namespaces/inkscape"
   xmlns:sodipodi="http://sodipodi.sourceforge.net/DTD/sodipodi-0.dtd"
   xmlns="http://www.w3.org/2000/svg"
   xmlns:svg="http://www.w3.org/2000/svg"><sodipodi:namedview
     id="namedview1"
     pagecolor="#ffffff"
     bordercolor="#000000"
     borderopacity="0.25"
     inkscape:showpageshadow="2"
     inkscape:pageopacity="0.0"
     inkscape:pagecheckerboard="0"
     inkscape:deskcolor="#d1d1d1"
     inkscape:zoom="0.4609375"
     inkscape:cx="225.62712"
     inkscape:cy="256"
     inkscape:window-width="1536"
     inkscape:window-height="751"
     inkscape:window-x="197"
     inkscape:window-y="1189"
     inkscape:window-maximized="0"
     inkscape:current-layer="svg1" /><defs
     id="defs1" /><circle
     style="display:inline;fill:#d4ecff;fill-opacity:1;stroke:#e67e22;stroke-width:0;stroke-dasharray:none"
     id="path2"
     cx="59.652332"
     cy="77.886154"
     r="45.920902" /><g
     id="layer1"
     transform="matrix(1.041346,0,0,0.98697022,-2.9008619,1.7503117)"><path
       style="fill:#007ada;fill-opacity:1;stroke-width:1.85141"
       d="M 55.968958,134.25397 C 47.403827,133.34191 39.16882,130.65215 32.87963,126.71242 21.578525,119.63313 12.92258,108.3578 8.8498528,95.411006 6.8685076,89.112507 6.1843175,84.467055 6.1685454,77.205738 6.154684,70.826662 6.4968849,67.944281 7.962874,62.09186 13.565591,39.725061 32.759287,22.647268 54.777867,20.437736 l 2.302779,-0.231072 v 5.904064 5.904082 l -1.191093,0.185216 c -8.549284,1.329214 -13.491613,3.189843 -19.639843,7.393785 -3.662,2.503935 -9.527289,8.697359 -11.929984,12.597397 -4.924383,7.993216 -7.078368,15.612686 -7.071481,25.01455 0.0059,7.933594 1.167779,13.176458 4.497751,20.294076 5.988049,12.799096 16.835434,21.461456 30.340553,24.228936 3.951705,0.80979 11.233319,0.86185 15.302717,0.10945 8.7344,-1.61503 16.352956,-5.82076 22.74523,-12.5562 7.167746,-7.55255 11.171734,-16.275814 12.526814,-27.291549 l 0.1962,-1.594893 h 5.55475 5.55474 l -0.20392,2.098535 c -1.07093,11.021122 -4.90514,21.207217 -11.21689,29.799237 -8.424877,11.46855 -20.419996,19.00282 -34.00647,21.3598 -2.791385,0.48426 -10.29695,0.84303 -12.570762,0.6009 z m 0.781934,-33.78792 c -0.0066,-0.23553 -0.007,-7.556029 -7.45e-4,-16.267759 0.0064,-8.711748 -0.07504,-16.077608 -0.180665,-16.368585 -0.163666,-0.450857 -0.938199,-0.529055 -5.240062,-0.529055 h -5.048012 v -5.023765 -5.023764 l 6.908336,-0.0967 c 3.799585,-0.05311 10.73174,-0.05426 15.404789,-0.0019 l 8.496454,0.09441 v 5.025955 5.025954 h -5.079019 -5.079036 l -0.08229,16.704334 -0.08229,16.704355 -5.002598,0.0925 c -3.884278,0.0718 -5.005296,-0.004 -5.014713,-0.33577 z M 102.68724,72.924722 C 102.00357,68.265829 101.7561,66.975885 101.05612,64.422497 100.08639,60.884988 97.726778,55.519954 95.750467,52.359064 89.241525,41.948679 78.39821,34.519374 67.08581,32.719468 65.688264,32.497113 64.223228,32.251555 63.83017,32.173795 63.121394,32.033503 63.115505,31.98401 63.115505,26.162923 c 0,-6.823995 -0.541616,-6.179604 4.516622,-5.3736 21.894503,3.488796 39.356783,20.179064 44.671313,42.696358 0.57648,2.442583 0.98678,4.925922 1.47623,8.935398 l 0.1947,1.594893 h -5.5635 -5.5635 z m 17.28307,0.77267 c 0,-0.175126 -0.21984,-2.101675 -0.48856,-4.281017 -0.58721,-4.762369 -1.66946,-9.838347 -2.09763,-9.838347 -0.17052,0 -0.23058,-0.135725 -0.13361,-0.301544 0.29825,-0.510152 -1.37445,-5.365452 -3.31449,-9.620924 C 108.15281,36.9702 98.213455,26.470403 86.129507,20.28115 79.761759,17.019657 73.984066,15.259764 66.212343,14.21437 L 63.115505,13.797796 V 7.9799266 c 0,-6.7363175 -0.57149,-6.0289747 4.421923,-5.4730425 20.995231,2.3374507 39.993012,14.5546509 51.675522,33.2317729 6.19586,9.905449 10.54379,22.723126 11.38961,33.576584 0.10783,1.385045 0.26763,3.009308 0.35484,3.609481 l 0.15865,1.09125 h -5.57284 c -3.30291,0 -5.57282,-0.129827 -5.57282,-0.31858 z"
       id="path1"
       sodipodi:nodetypes="csssssccccssssscsscccsssccccsscccccccccccccccsscscscsscccscssccsscssscccscc" /></g></svg>
