<?xml version="1.0" encoding="UTF-8" standalone="no"?>
<!DOCTYPE svg PUBLIC "-//W3C//DTD SVG 1.1//EN" "http://www.w3.org/Graphics/SVG/1.1/DTD/svg11.dtd">
<svg width="100%" height="100%" viewBox="0 0 1024 1024" version="1.1" xmlns="http://www.w3.org/2000/svg" xmlns:xlink="http://www.w3.org/1999/xlink" xml:space="preserve" xmlns:serif="http://www.serif.com/" style="fill-rule:evenodd;clip-rule:evenodd;">
    <g transform="matrix(2.135837,0,0,2.135837,-577.374422,-507.242151)">
        <g transform="matrix(0.861668,0,0,0.861668,96.300354,40.371662)">
            <path d="M730,269.954L730,378.046C730,384.644 724.644,390 718.046,390L609.954,390C603.356,390 598,384.644 598,378.046L598,269.954C598,263.356 603.356,258 609.954,258L718.046,258C724.644,258 730,263.356 730,269.954Z" style="fill:url(#_Linear1);stroke:url(#_Linear2);stroke-width:8px;"/>
        </g>
        <g transform="matrix(0.861668,0,0,0.861668,-85.164873,-220.975501)">
            <path d="M578,573.954L578,682.046C578,688.644 572.644,694 566.046,694L457.954,694C451.356,694 446,688.644 446,682.046L446,573.954C446,567.356 451.356,562 457.954,562L566.046,562C572.644,562 578,567.356 578,573.954Z" style="fill:url(#_Linear3);stroke:url(#_Linear4);stroke-width:8px;"/>
        </g>
        <g transform="matrix(0.861668,0,0,0.861668,72.618734,-220.975501)">
            <path d="M578,573.954L578,682.046C578,688.644 572.644,694 566.046,694L457.954,694C451.356,694 446,688.644 446,682.046L446,573.954C446,567.356 451.356,562 457.954,562L566.046,562C572.644,562 578,567.356 578,573.954Z" style="fill:url(#_Linear5);stroke:url(#_Linear6);stroke-width:8px;"/>
        </g>
        <g transform="matrix(0.861668,0,0,0.861668,72.618734,-65.622068)">
            <path d="M578,573.954L578,682.046C578,688.644 572.644,694 566.046,694L457.954,694C451.356,694 446,688.644 446,682.046L446,573.954C446,567.356 451.356,562 457.954,562L566.046,562C572.644,562 578,567.356 578,573.954Z" style="fill:url(#_Linear7);stroke:url(#_Linear8);stroke-width:8px;"/>
        </g>
        <g transform="matrix(0.861668,0,0,0.861668,72.618734,91.452239)">
            <path d="M578,573.954L578,682.046C578,688.644 572.644,694 566.046,694L457.954,694C451.356,694 446,688.644 446,682.046L446,573.954C446,567.356 451.356,562 457.954,562L566.046,562C572.644,562 578,567.356 578,573.954Z" style="fill:url(#_Linear9);stroke:url(#_Linear10);stroke-width:8px;"/>
        </g>
        <g transform="matrix(0.861668,0,0,0.861668,226.16509,-65.622068)">
            <path d="M578,573.954L578,682.046C578,688.644 572.644,694 566.046,694L457.954,694C451.356,694 446,688.644 446,682.046L446,573.954C446,567.356 451.356,562 457.954,562L566.046,562C572.644,562 578,567.356 578,573.954Z" style="fill:url(#_Linear11);stroke:url(#_Linear12);stroke-width:8px;"/>
        </g>
        <g transform="matrix(0.861668,0,0,0.861668,-85.164873,91.823888)">
            <path d="M578,573.954L578,682.046C578,688.644 572.644,694 566.046,694L457.954,694C451.356,694 446,688.644 446,682.046L446,573.954C446,567.356 451.356,562 457.954,562L566.046,562C572.644,562 578,567.356 578,573.954Z" style="fill:url(#_Linear13);stroke:url(#_Linear14);stroke-width:8px;"/>
        </g>
        <g transform="matrix(0.861668,0,0,0.861668,-85.164873,-65.262661)">
            <path d="M578,573.954L578,682.046C578,688.644 572.644,694 566.046,694L457.954,694C451.356,694 446,688.644 446,682.046L446,573.954C446,567.356 451.356,562 457.954,562L566.046,562C572.644,562 578,567.356 578,573.954Z" style="fill:url(#_Linear15);stroke:url(#_Linear16);stroke-width:8px;"/>
        </g>
    </g>
    <defs>
        <linearGradient id="_Linear1" x1="0" y1="0" x2="1" y2="0" gradientUnits="userSpaceOnUse" gradientTransform="matrix(132,132,-132,132,598,258)"><stop offset="0" style="stop-color:rgb(198,255,0);stop-opacity:1"/><stop offset="0.45" style="stop-color:rgb(116,240,0);stop-opacity:1"/><stop offset="1" style="stop-color:rgb(32,199,0);stop-opacity:1"/></linearGradient>
        <linearGradient id="_Linear2" x1="0" y1="0" x2="1" y2="0" gradientUnits="userSpaceOnUse" gradientTransform="matrix(132,132,-132,132,598,258)"><stop offset="0" style="stop-color:rgb(232,255,94);stop-opacity:1"/><stop offset="1" style="stop-color:rgb(17,154,0);stop-opacity:1"/></linearGradient>
        <linearGradient id="_Linear3" x1="0" y1="0" x2="1" y2="0" gradientUnits="userSpaceOnUse" gradientTransform="matrix(132,132,-132,132,446,562)"><stop offset="0" style="stop-color:rgb(255,232,90);stop-opacity:1"/><stop offset="0.45" style="stop-color:rgb(255,196,0);stop-opacity:1"/><stop offset="1" style="stop-color:rgb(240,138,0);stop-opacity:1"/></linearGradient>
        <linearGradient id="_Linear4" x1="0" y1="0" x2="1" y2="0" gradientUnits="userSpaceOnUse" gradientTransform="matrix(132,132,-132,132,446,562)"><stop offset="0" style="stop-color:rgb(255,248,149);stop-opacity:1"/><stop offset="1" style="stop-color:rgb(233,181,1);stop-opacity:1"/></linearGradient>
        <linearGradient id="_Linear5" x1="0" y1="0" x2="1" y2="0" gradientUnits="userSpaceOnUse" gradientTransform="matrix(132,132,-132,132,446,562)"><stop offset="0" style="stop-color:rgb(255,232,90);stop-opacity:1"/><stop offset="0.45" style="stop-color:rgb(255,196,0);stop-opacity:1"/><stop offset="1" style="stop-color:rgb(240,138,0);stop-opacity:1"/></linearGradient>
        <linearGradient id="_Linear6" x1="0" y1="0" x2="1" y2="0" gradientUnits="userSpaceOnUse" gradientTransform="matrix(132,132,-132,132,446,562)"><stop offset="0" style="stop-color:rgb(255,248,149);stop-opacity:1"/><stop offset="1" style="stop-color:rgb(233,181,1);stop-opacity:1"/></linearGradient>
        <linearGradient id="_Linear7" x1="0" y1="0" x2="1" y2="0" gradientUnits="userSpaceOnUse" gradientTransform="matrix(132,132,-132,132,446,562)"><stop offset="0" style="stop-color:rgb(255,232,90);stop-opacity:1"/><stop offset="0.45" style="stop-color:rgb(255,196,0);stop-opacity:1"/><stop offset="1" style="stop-color:rgb(240,138,0);stop-opacity:1"/></linearGradient>
        <linearGradient id="_Linear8" x1="0" y1="0" x2="1" y2="0" gradientUnits="userSpaceOnUse" gradientTransform="matrix(132,132,-132,132,446,562)"><stop offset="0" style="stop-color:rgb(255,248,149);stop-opacity:1"/><stop offset="1" style="stop-color:rgb(233,181,1);stop-opacity:1"/></linearGradient>
        <linearGradient id="_Linear9" x1="0" y1="0" x2="1" y2="0" gradientUnits="userSpaceOnUse" gradientTransform="matrix(132,132,-132,132,446,562)"><stop offset="0" style="stop-color:rgb(255,232,90);stop-opacity:1"/><stop offset="0.45" style="stop-color:rgb(255,196,0);stop-opacity:1"/><stop offset="1" style="stop-color:rgb(240,138,0);stop-opacity:1"/></linearGradient>
        <linearGradient id="_Linear10" x1="0" y1="0" x2="1" y2="0" gradientUnits="userSpaceOnUse" gradientTransform="matrix(132,132,-132,132,446,562)"><stop offset="0" style="stop-color:rgb(255,248,149);stop-opacity:1"/><stop offset="1" style="stop-color:rgb(233,181,1);stop-opacity:1"/></linearGradient>
        <linearGradient id="_Linear11" x1="0" y1="0" x2="1" y2="0" gradientUnits="userSpaceOnUse" gradientTransform="matrix(132,132,-132,132,446,562)"><stop offset="0" style="stop-color:rgb(255,232,90);stop-opacity:1"/><stop offset="0.45" style="stop-color:rgb(255,196,0);stop-opacity:1"/><stop offset="1" style="stop-color:rgb(240,138,0);stop-opacity:1"/></linearGradient>
        <linearGradient id="_Linear12" x1="0" y1="0" x2="1" y2="0" gradientUnits="userSpaceOnUse" gradientTransform="matrix(132,132,-132,132,446,562)"><stop offset="0" style="stop-color:rgb(255,248,149);stop-opacity:1"/><stop offset="1" style="stop-color:rgb(233,181,1);stop-opacity:1"/></linearGradient>
        <linearGradient id="_Linear13" x1="0" y1="0" x2="1" y2="0" gradientUnits="userSpaceOnUse" gradientTransform="matrix(132,132,-132,132,446,562)"><stop offset="0" style="stop-color:rgb(255,232,90);stop-opacity:1"/><stop offset="0.45" style="stop-color:rgb(255,196,0);stop-opacity:1"/><stop offset="1" style="stop-color:rgb(240,138,0);stop-opacity:1"/></linearGradient>
        <linearGradient id="_Linear14" x1="0" y1="0" x2="1" y2="0" gradientUnits="userSpaceOnUse" gradientTransform="matrix(132,132,-132,132,446,562)"><stop offset="0" style="stop-color:rgb(255,248,149);stop-opacity:1"/><stop offset="1" style="stop-color:rgb(233,181,1);stop-opacity:1"/></linearGradient>
        <linearGradient id="_Linear15" x1="0" y1="0" x2="1" y2="0" gradientUnits="userSpaceOnUse" gradientTransform="matrix(132,132,-132,132,446,562)"><stop offset="0" style="stop-color:rgb(255,232,90);stop-opacity:1"/><stop offset="0.45" style="stop-color:rgb(255,196,0);stop-opacity:1"/><stop offset="1" style="stop-color:rgb(240,138,0);stop-opacity:1"/></linearGradient>
        <linearGradient id="_Linear16" x1="0" y1="0" x2="1" y2="0" gradientUnits="userSpaceOnUse" gradientTransform="matrix(132,132,-132,132,446,562)"><stop offset="0" style="stop-color:rgb(255,248,149);stop-opacity:1"/><stop offset="1" style="stop-color:rgb(233,181,1);stop-opacity:1"/></linearGradient>
    </defs>
</svg>
